<svg xmlns="http://www.w3.org/2000/svg" viewBox="0 0 500 300" fill="none" opacity="0.15">
  <!-- Network/dot grid pattern for footer CTA -->
  <circle cx="50" cy="50" r="2" fill="#2ECC71"/>
  <circle cx="100" cy="30" r="1.5" fill="#2ECC71"/>
  <circle cx="150" cy="60" r="2.5" fill="#2ECC71"/>
  <circle cx="200" cy="40" r="1.5" fill="#2ECC71"/>
  <circle cx="250" cy="70" r="2" fill="#2ECC71"/>
  <circle cx="300" cy="35" r="3" fill="#2ECC71"/>
  <circle cx="350" cy="55" r="1.5" fill="#2ECC71"/>
  <circle cx="400" cy="45" r="2" fill="#2ECC71"/>
  <circle cx="450" cy="65" r="2.5" fill="#2ECC71"/>
  <circle cx="75" cy="120" r="1.5" fill="#2ECC71"/>
  <circle cx="125" cy="140" r="2" fill="#2ECC71"/>
  <circle cx="175" cy="110" r="3" fill="#2ECC71"/>
  <circle cx="225" cy="150" r="1.5" fill="#2ECC71"/>
  <circle cx="275" cy="130" r="2.5" fill="#2ECC71"/>
  <circle cx="325" cy="120" r="2" fill="#2ECC71"/>
  <circle cx="375" cy="145" r="1.5" fill="#2ECC71"/>
  <circle cx="425" cy="115" r="2" fill="#2ECC71"/>
  <circle cx="60" cy="200" r="2" fill="#2ECC71"/>
  <circle cx="140" cy="220" r="1.5" fill="#2ECC71"/>
  <circle cx="200" cy="190" r="2.5" fill="#2ECC71"/>
  <circle cx="280" cy="210" r="2" fill="#2ECC71"/>
  <circle cx="340" cy="230" r="1.5" fill="#2ECC71"/>
  <circle cx="420" cy="200" r="3" fill="#2ECC71"/>
  <circle cx="470" cy="180" r="2" fill="#2ECC71"/>
  <circle cx="100" cy="270" r="1.5" fill="#2ECC71"/>
  <circle cx="200" cy="260" r="2" fill="#2ECC71"/>
  <circle cx="300" cy="280" r="2.5" fill="#2ECC71"/>
  <circle cx="400" cy="260" r="1.5" fill="#2ECC71"/>
  <!-- Connecting lines -->
  <line x1="50" y1="50" x2="100" y2="30" stroke="#2ECC71" stroke-width="0.5"/>
  <line x1="100" y1="30" x2="150" y2="60" stroke="#2ECC71" stroke-width="0.5"/>
  <line x1="150" y1="60" x2="200" y2="40" stroke="#2ECC71" stroke-width="0.5"/>
  <line x1="200" y1="40" x2="250" y2="70" stroke="#2ECC71" stroke-width="0.5"/>
  <line x1="250" y1="70" x2="300" y2="35" stroke="#2ECC71" stroke-width="0.5"/>
  <line x1="300" y1="35" x2="350" y2="55" stroke="#2ECC71" stroke-width="0.5"/>
  <line x1="350" y1="55" x2="400" y2="45" stroke="#2ECC71" stroke-width="0.5"/>
  <line x1="400" y1="45" x2="450" y2="65" stroke="#2ECC71" stroke-width="0.5"/>
  <line x1="75" y1="120" x2="175" y2="110" stroke="#2ECC71" stroke-width="0.5"/>
  <line x1="175" y1="110" x2="275" y2="130" stroke="#2ECC71" stroke-width="0.5"/>
  <line x1="275" y1="130" x2="375" y2="145" stroke="#2ECC71" stroke-width="0.5"/>
  <line x1="50" y1="50" x2="75" y2="120" stroke="#2ECC71" stroke-width="0.3"/>
  <line x1="150" y1="60" x2="175" y2="110" stroke="#2ECC71" stroke-width="0.3"/>
  <line x1="300" y1="35" x2="325" y2="120" stroke="#2ECC71" stroke-width="0.3"/>
  <line x1="175" y1="110" x2="200" y2="190" stroke="#2ECC71" stroke-width="0.3"/>
  <line x1="275" y1="130" x2="280" y2="210" stroke="#2ECC71" stroke-width="0.3"/>
  <line x1="425" y1="115" x2="420" y2="200" stroke="#2ECC71" stroke-width="0.3"/>
</svg>
